<svg width="50" height="87" viewBox="0 0 50 87" fill="none" xmlns="http://www.w3.org/2000/svg">
<path d="M0 0H10V10H0V0Z" fill="#100F0F"/>
<path d="M0 19H10V29H0V19Z" fill="#100F0F"/>
<path d="M0 39H10V48H0V39Z" fill="#100F0F"/>
<path d="M0 58H10V68H0V58Z" fill="#100F0F"/>
<path d="M0 77H10V87H0V77Z" fill="#100F0F"/>
<path d="M19 0H29V10H19V0Z" fill="#100F0F"/>
<path d="M19 19H29V29H19V19Z" fill="#100F0F"/>
<path d="M19 39H29V48H19V39Z" fill="#100F0F"/>
<path d="M19 58H29V68H19V58Z" fill="#100F0F"/>
<path d="M19 77H29V87H19V77Z" fill="#100F0F"/>
<path d="M39 0H48V10H39V0Z" fill="#100F0F"/>
<path d="M39 19H48V29H39V19Z" fill="#100F0F"/>
<path d="M39 39H48V48H39V39Z" fill="#100F0F"/>
<path d="M39 58H48V68H39V58Z" fill="#100F0F"/>
<path d="M39 77H48V87H39V77Z" fill="#100F0F"/>
</svg>
