<svg width="1002" height="102" viewBox="0 0 1002 102" fill="none" xmlns="http://www.w3.org/2000/svg">
<path d="M1 51C34.3333 -15.6667 67.6667 -15.6667 101 51C134.333 117.667 167.667 117.667 201 51C234.333 -15.6667 267.667 -15.6667 301 51C334.333 117.667 367.667 117.667 401 51C434.333 -15.6667 467.667 -15.6667 501 51C534.333 117.667 567.667 117.667 601 51C634.333 -15.6667 667.667 -15.6667 701 51C734.333 117.667 767.667 117.667 801 51C834.333 -15.6667 867.667 -15.6667 901 51C934.333 117.667 967.667 117.667 1001 51" stroke="#4C75F2" stroke-width="2"/>
</svg>
